<mxfile host="app.diagrams.net" agent="Mozilla/5.0 (Macintosh; Intel Mac OS X 10_15_7) AppleWebKit/537.36 (KHTML, like Gecko) Chrome/133.0.0.0 Safari/537.36" version="26.0.16">
  <diagram name="Страница — 1" id="H93BIAli3jwtN4ZIxMHW">
    <mxGraphModel dx="126" dy="61" grid="1" gridSize="10" guides="1" tooltips="1" connect="1" arrows="1" fold="1" page="1" pageScale="1" pageWidth="827" pageHeight="1169" math="0" shadow="0">
      <root>
        <mxCell id="0" />
        <mxCell id="1" parent="0" />
        <mxCell id="k2UtoUmHhy54F2P_Ej6i-1" value="" style="rounded=0;whiteSpace=wrap;html=1;" parent="1" vertex="1">
          <mxGeometry x="240" y="565" width="150" height="70" as="geometry" />
        </mxCell>
        <mxCell id="k2UtoUmHhy54F2P_Ej6i-2" value="Клиентская часть" style="text;html=1;align=center;verticalAlign=middle;whiteSpace=wrap;rounded=0;" parent="1" vertex="1">
          <mxGeometry x="250" y="585" width="130" height="30" as="geometry" />
        </mxCell>
        <mxCell id="k2UtoUmHhy54F2P_Ej6i-12" value="" style="rounded=0;whiteSpace=wrap;html=1;" parent="1" vertex="1">
          <mxGeometry x="450" y="420" width="430" height="230" as="geometry" />
        </mxCell>
        <mxCell id="k2UtoUmHhy54F2P_Ej6i-13" value="Серверная часть" style="text;html=1;align=center;verticalAlign=middle;whiteSpace=wrap;rounded=0;" parent="1" vertex="1">
          <mxGeometry x="450" y="420" width="110" height="30" as="geometry" />
        </mxCell>
        <mxCell id="k2UtoUmHhy54F2P_Ej6i-16" value="Подсистема аутентификации" style="rounded=0;whiteSpace=wrap;html=1;" parent="1" vertex="1">
          <mxGeometry x="750" y="575" width="100" height="50" as="geometry" />
        </mxCell>
        <mxCell id="k2UtoUmHhy54F2P_Ej6i-17" value="База данных" style="shape=cylinder3;whiteSpace=wrap;html=1;boundedLbl=1;backgroundOutline=1;size=15;" parent="1" vertex="1">
          <mxGeometry x="750" y="470" width="100" height="60" as="geometry" />
        </mxCell>
        <mxCell id="k2UtoUmHhy54F2P_Ej6i-18" value="" style="rounded=0;whiteSpace=wrap;html=1;" parent="1" vertex="1">
          <mxGeometry x="510" y="460" width="160" height="80" as="geometry" />
        </mxCell>
        <mxCell id="k2UtoUmHhy54F2P_Ej6i-19" value="Подсистема игры" style="text;html=1;align=center;verticalAlign=middle;whiteSpace=wrap;rounded=0;" parent="1" vertex="1">
          <mxGeometry x="530" y="460" width="120" height="30" as="geometry" />
        </mxCell>
        <mxCell id="k2UtoUmHhy54F2P_Ej6i-20" value="Подсистема обработки команд" style="rounded=0;whiteSpace=wrap;html=1;" parent="1" vertex="1">
          <mxGeometry x="520" y="490" width="140" height="40" as="geometry" />
        </mxCell>
        <mxCell id="k2UtoUmHhy54F2P_Ej6i-28" value="" style="endArrow=none;html=1;rounded=0;entryX=0.5;entryY=1;entryDx=0;entryDy=0;entryPerimeter=0;exitX=0.5;exitY=0;exitDx=0;exitDy=0;" parent="1" target="k2UtoUmHhy54F2P_Ej6i-18" edge="1" source="k2UtoUmHhy54F2P_Ej6i-14">
          <mxGeometry width="50" height="50" relative="1" as="geometry">
            <mxPoint x="625" y="570" as="sourcePoint" />
            <mxPoint x="675" y="520" as="targetPoint" />
          </mxGeometry>
        </mxCell>
        <mxCell id="k2UtoUmHhy54F2P_Ej6i-29" value="" style="endArrow=none;html=1;rounded=0;entryX=0;entryY=0.5;entryDx=0;entryDy=0;" parent="1" target="k2UtoUmHhy54F2P_Ej6i-16" edge="1" source="k2UtoUmHhy54F2P_Ej6i-14">
          <mxGeometry width="50" height="50" relative="1" as="geometry">
            <mxPoint x="680" y="600" as="sourcePoint" />
            <mxPoint x="730" y="550" as="targetPoint" />
          </mxGeometry>
        </mxCell>
        <mxCell id="k2UtoUmHhy54F2P_Ej6i-30" value="" style="endArrow=none;html=1;rounded=0;entryX=0.5;entryY=1;entryDx=0;entryDy=0;entryPerimeter=0;exitX=0.5;exitY=0;exitDx=0;exitDy=0;" parent="1" source="k2UtoUmHhy54F2P_Ej6i-16" target="k2UtoUmHhy54F2P_Ej6i-17" edge="1">
          <mxGeometry width="50" height="50" relative="1" as="geometry">
            <mxPoint x="800" y="570" as="sourcePoint" />
            <mxPoint x="850" y="520" as="targetPoint" />
          </mxGeometry>
        </mxCell>
        <mxCell id="r9frch2cOqN3-spioA2m-1" value="" style="endArrow=none;html=1;rounded=0;entryX=0;entryY=0.5;entryDx=0;entryDy=0;" edge="1" parent="1" target="k2UtoUmHhy54F2P_Ej6i-14">
          <mxGeometry width="50" height="50" relative="1" as="geometry">
            <mxPoint x="680" y="600" as="sourcePoint" />
            <mxPoint x="750" y="600" as="targetPoint" />
          </mxGeometry>
        </mxCell>
        <mxCell id="k2UtoUmHhy54F2P_Ej6i-14" value="Подсистема взаимодействия с клиентской частью&lt;div&gt;(servlets)&lt;/div&gt;" style="rounded=0;whiteSpace=wrap;html=1;" parent="1" vertex="1">
          <mxGeometry x="610" y="570" width="120" height="60" as="geometry" />
        </mxCell>
        <mxCell id="k2UtoUmHhy54F2P_Ej6i-10" value="Подсистема взаимодействия серверной частью&lt;div&gt;(JSP/JSF)&lt;/div&gt;" style="rounded=0;whiteSpace=wrap;html=1;" parent="1" vertex="1">
          <mxGeometry x="470" y="570" width="120" height="60" as="geometry" />
        </mxCell>
        <mxCell id="r9frch2cOqN3-spioA2m-2" value="" style="endArrow=none;html=1;rounded=0;entryX=1;entryY=0.5;entryDx=0;entryDy=0;exitX=0;exitY=0.5;exitDx=0;exitDy=0;" edge="1" parent="1" source="k2UtoUmHhy54F2P_Ej6i-14" target="k2UtoUmHhy54F2P_Ej6i-10">
          <mxGeometry width="50" height="50" relative="1" as="geometry">
            <mxPoint x="545" y="560" as="sourcePoint" />
            <mxPoint x="515" y="530" as="targetPoint" />
          </mxGeometry>
        </mxCell>
        <mxCell id="r9frch2cOqN3-spioA2m-5" value="" style="shape=flexArrow;endArrow=classic;startArrow=classic;html=1;rounded=0;entryX=0;entryY=0.5;entryDx=0;entryDy=0;startWidth=18.750994585573174;startSize=6.120704845814978;width=20.176211453744493;" edge="1" parent="1">
          <mxGeometry width="100" height="100" relative="1" as="geometry">
            <mxPoint x="390" y="599.67" as="sourcePoint" />
            <mxPoint x="470" y="599.67" as="targetPoint" />
          </mxGeometry>
        </mxCell>
        <mxCell id="r9frch2cOqN3-spioA2m-6" value="HTML" style="edgeLabel;html=1;align=center;verticalAlign=middle;resizable=0;points=[];" vertex="1" connectable="0" parent="r9frch2cOqN3-spioA2m-5">
          <mxGeometry x="-0.2" y="-2" relative="1" as="geometry">
            <mxPoint x="8" y="-2" as="offset" />
          </mxGeometry>
        </mxCell>
      </root>
    </mxGraphModel>
  </diagram>
</mxfile>
